HIERARCHY
ROOT joint_Root
{
	OFFSET 0.0 0.0 0.0
	CHANNELS 6 Xposition Yposition Zposition Zrotation Xrotation Yrotation 
	JOINT Hips
	{
		OFFSET 4.5925 91.4895 -427.239
		CHANNELS 6 Xposition Yposition Zposition Zrotation Xrotation Yrotation 
		JOINT Spine
		{
			OFFSET 15.7357 0.0 0.0
			CHANNELS 6 Xposition Yposition Zposition Zrotation Xrotation Yrotation 
			JOINT Chest
			{
				OFFSET 8.98455 -0.406207 0.0
				CHANNELS 6 Xposition Yposition Zposition Zrotation Xrotation Yrotation 
				JOINT Neck
				{
					OFFSET 16.3773 0.0 0.0
					CHANNELS 6 Xposition Yposition Zposition Zrotation Xrotation Yrotation 
					JOINT Head
					{
						OFFSET 6.45672 0.0 0.0
						CHANNELS 6 Xposition Yposition Zposition Zrotation Xrotation Yrotation 
						End Site
						{
							OFFSET 0.0 0.0 0.0
						}
					}
				}
				JOINT Shoulder_L
				{
					OFFSET 12.9942 -0.242716 4.98039
					CHANNELS 6 Xposition Yposition Zposition Zrotation Xrotation Yrotation 
					JOINT UpperArm_L
					{
						OFFSET 5.34809 0.0 0.0
						CHANNELS 6 Xposition Yposition Zposition Zrotation Xrotation Yrotation 
						JOINT LowerArm_L
						{
							OFFSET 24.3286 1.87007e-05 0.0
							CHANNELS 6 Xposition Yposition Zposition Zrotation Xrotation Yrotation 
							JOINT Hand_L
							{
								OFFSET 22.2916 0.0 0.0
								CHANNELS 6 Xposition Yposition Zposition Zrotation Xrotation Yrotation 
								End Site
								{
									OFFSET 0.0 0.0 0.0
								}
							}
						}
					}
				}
				JOINT Shoulder_R
				{
					OFFSET 12.9945 -0.242716 -4.98039
					CHANNELS 6 Xposition Yposition Zposition Zrotation Xrotation Yrotation 
					JOINT UpperArm_R
					{
						OFFSET -5.34813 0.0 0.0
						CHANNELS 6 Xposition Yposition Zposition Zrotation Xrotation Yrotation 
						JOINT LowerArm_R
						{
							OFFSET -24.3289 0.000322201 0.0
							CHANNELS 6 Xposition Yposition Zposition Zrotation Xrotation Yrotation 
							JOINT Hand_R
							{
								OFFSET -22.2915 -0.000108084 0.0
								CHANNELS 6 Xposition Yposition Zposition Zrotation Xrotation Yrotation 
								End Site
								{
									OFFSET 0.0 0.0 0.0
								}
							}
						}
					}
				}
			}
		}
		JOINT UpperLeg_L
		{
			OFFSET -2.19248 -6.46944 0.0
			CHANNELS 6 Xposition Yposition Zposition Zrotation Xrotation Yrotation 
			JOINT LowerLeg_L
			{
				OFFSET 39.0811 0.0 -1.23785e-05
				CHANNELS 6 Xposition Yposition Zposition Zrotation Xrotation Yrotation 
				JOINT Foot_L
				{
					OFFSET 40.9854 0.0 -1.26872e-05
					CHANNELS 6 Xposition Yposition Zposition Zrotation Xrotation Yrotation 
					JOINT Toes_L
					{
						OFFSET 11.7543 0.0 0.0
						CHANNELS 6 Xposition Yposition Zposition Zrotation Xrotation Yrotation 
						End Site
						{
							OFFSET 0.0 0.0 0.0
						}
					}
				}
			}
		}
		JOINT UpperLeg_R
		{
			OFFSET -2.19251 6.46944 0.0
			CHANNELS 6 Xposition Yposition Zposition Zrotation Xrotation Yrotation 
			JOINT LowerLeg_R
			{
				OFFSET -39.0811 -0.00228153 -0.0401928
				CHANNELS 6 Xposition Yposition Zposition Zrotation Xrotation Yrotation 
				JOINT Foot_R
				{
					OFFSET -40.9854 0.0 0.0
					CHANNELS 6 Xposition Yposition Zposition Zrotation Xrotation Yrotation 
					JOINT Toes_R
					{
						OFFSET -11.7543 0.0 0.0
						CHANNELS 6 Xposition Yposition Zposition Zrotation Xrotation Yrotation 
						End Site
						{
							OFFSET 0.0 0.0 0.0
						}
					}
				}
			}
		}
	}
}
MOTION
Frames:	5
Frame Time:	0.0333333
0.000000 0.000000 0.000000 0.000000 0.000000 -0.000000 -79.828100 89.515700 204.185000 -50.647100 83.516800 136.002000 15.735700 0.000005 -0.000001 62.723100 83.710900 -61.210300 8.984550 -0.406207 -0.000000 3.507550 -5.813790 3.202560 16.377300 -0.000001 -0.000001 -1.496260 -3.634790 2.310040 6.456720 -0.000001 -0.000000 -7.234250 -0.586318 5.290820 12.994200 -0.242716 4.980390 -90.254000 0.948348 -75.007800 5.348090 -0.000007 -0.000001 -50.054400 42.928400 -42.118900 24.328600 0.000019 0.000005 14.503600 8.845620 -59.270400 22.291600 -0.000001 0.000005 14.993000 5.344290 -1.206770 12.994500 -0.242716 -4.980390 87.742500 9.367410 -76.385600 -5.348130 -0.000001 -0.000004 -67.892100 12.858900 14.571200 -24.328900 0.000322 -0.000009 0.565047 7.796930 -4.165540 -22.291500 -0.000108 -0.000004 12.988200 5.209650 2.476180 -2.192480 -6.469440 -0.000000 -178.110000 -11.529400 3.839100 39.081100 -0.000007 -0.000012 0.026261 -0.054678 25.654400 40.985400 -0.000006 -0.000013 15.993100 21.845400 -72.777600 11.754300 -0.000000 0.000003 -0.065034 -0.347811 -30.959900 -2.192510 6.469440 -0.000001 -164.108000 22.382600 146.985000 -39.081100 -0.002282 -0.040193 0.007050 -0.007408 26.799700 -40.985400 0.000008 0.000006 6.371250 8.963540 -57.006400 -11.754300 -0.000006 -0.000006 -0.018440 -0.158492 -23.045700
0.000000 0.000000 0.000000 0.000000 0.000000 -0.000000 -75.318300 88.527700 204.202000 -56.727000 83.675500 142.077000 15.735700 0.000005 -0.000001 60.881600 83.840200 -59.352300 8.984550 -0.406207 -0.000000 3.094390 -6.051140 3.221130 16.377300 -0.000001 -0.000001 -0.611106 -3.593140 1.750200 6.456720 -0.000001 -0.000000 -6.473230 -0.566466 4.178350 12.994200 -0.242716 4.980390 -90.407200 1.490000 -74.714700 5.348090 -0.000007 -0.000001 -50.674900 44.872300 -39.424800 24.328600 0.000019 0.000005 13.680500 9.349650 -56.279600 22.291600 -0.000001 0.000005 14.645600 5.357110 -1.592180 12.994500 -0.242716 -4.980390 87.540700 9.924690 -76.007600 -5.348130 -0.000001 -0.000004 -68.024000 14.941400 12.094100 -24.328900 0.000322 -0.000009 0.603260 7.393290 -4.686340 -22.291500 -0.000108 -0.000004 12.632200 5.220540 2.198610 -2.192480 -6.469440 -0.000000 -177.551000 -11.390700 4.586960 39.081100 -0.000007 -0.000012 0.025645 -0.045222 29.556600 40.985400 -0.000006 -0.000013 14.742400 23.452500 -71.566200 11.754300 -0.000000 0.000003 -0.107364 -0.462482 -35.917000 -2.192510 6.469440 -0.000001 -165.999000 17.321300 146.233000 -39.081100 -0.002282 -0.040193 -0.079108 0.126304 33.121200 -40.985400 0.000008 0.000006 11.387300 1.394110 -57.555500 -11.754300 -0.000006 -0.000006 -0.010510 -0.107408 -20.949900
0.000000 0.000000 0.000000 0.000000 0.000000 -0.000000 -70.419400 87.626000 204.005000 -60.289300 83.369600 146.717000 15.735700 0.000005 -0.000001 60.316200 83.631000 -58.439300 8.984550 -0.406207 -0.000000 3.425790 -6.371800 3.943510 16.377300 -0.000001 -0.000001 -0.208796 -3.561000 1.139480 6.456720 -0.000001 -0.000000 -5.868340 -0.376467 2.544750 12.994200 -0.242716 4.980390 -90.734700 2.641540 -74.450700 5.348090 -0.000007 -0.000001 -52.177700 46.885800 -36.396800 24.328600 0.000019 0.000005 13.123000 11.168900 -50.282300 22.291600 -0.000001 0.000005 13.855000 5.368650 -1.945460 12.994500 -0.242716 -4.980390 87.199700 10.819900 -75.395600 -5.348130 -0.000001 -0.000004 -66.762200 17.353500 8.570230 -24.328900 0.000322 -0.000009 0.677599 6.413360 -6.056010 -22.291500 -0.000108 -0.000004 12.225800 5.242380 1.631480 -2.192480 -6.469440 -0.000000 -176.170000 -10.765600 4.889070 39.081100 -0.000007 -0.000012 0.016975 -0.023676 35.638500 40.985400 -0.000006 -0.000013 11.007900 26.269500 -66.891200 11.754300 -0.000000 0.000003 -0.154443 -0.563448 -40.434800 -2.192510 6.469440 -0.000001 -169.221000 9.797290 147.438000 -39.081100 -0.002282 -0.040193 -0.117648 0.139102 41.001100 -40.985400 0.000008 0.000006 9.341890 -6.891260 -63.415400 -11.754300 -0.000006 -0.000006 -0.006015 -0.070970 -19.461500
0.000000 0.000000 0.000000 0.000000 0.000000 -0.000000 -65.381600 87.059400 203.946000 -60.158300 82.649700 149.580000 15.735700 0.000005 -0.000001 62.009400 82.752300 -59.593800 8.984550 -0.406207 -0.000000 5.212310 -6.842630 5.141930 16.377300 -0.000001 -0.000001 0.478709 -3.495850 1.238150 6.456720 -0.000001 -0.000000 -5.859150 0.123132 0.836334 12.994200 -0.242716 4.980390 -90.915000 3.358980 -74.752700 5.348090 -0.000007 -0.000001 -56.507500 47.889000 -32.643600 24.328600 0.000019 0.000005 11.913500 14.441400 -40.237800 22.291600 -0.000001 0.000005 12.997600 5.364070 -1.801170 12.994500 -0.242716 -4.980390 87.022600 11.642600 -75.547600 -5.348130 -0.000001 -0.000004 -64.765400 19.294000 3.912780 -24.328900 0.000322 -0.000009 0.675972 4.806790 -8.034200 -22.291500 -0.000108 -0.000004 11.673100 5.278450 0.666724 -2.192480 -6.469440 -0.000000 -174.417000 -8.605580 4.226980 39.081100 -0.000007 -0.000012 0.001852 -0.001869 44.695500 40.985400 -0.000006 -0.000013 3.496650 27.532200 -56.265000 11.754300 -0.000000 0.000003 -0.156215 -0.566876 -40.591300 -2.192510 6.469440 -0.000001 -169.642000 9.813460 152.256000 -39.081100 -0.002282 -0.040193 -0.061061 0.064456 44.942000 -40.985400 0.000008 0.000006 9.478670 -8.621400 -68.939800 -11.754300 -0.000006 -0.000006 -0.002340 -0.032898 -17.910800
0.000000 0.000000 0.000000 0.000000 0.000000 -0.000000 -60.997400 86.913800 204.033000 -65.293900 82.075900 156.675000 15.735700 0.000005 -0.000001 63.604800 82.348200 -61.074000 8.984550 -0.406207 -0.000000 6.131890 -6.821040 5.426440 16.377300 -0.000001 -0.000001 0.940868 -4.186230 1.737520 6.456720 -0.000001 -0.000000 -4.838950 0.071920 0.812465 12.994200 -0.242716 4.980390 -90.862400 3.414880 -75.817900 5.348090 -0.000007 -0.000001 -60.137400 48.980800 -30.946600 24.328600 0.000019 0.000005 8.658430 17.959500 -26.297100 22.291600 -0.000001 0.000005 11.867100 5.309390 -0.169631 12.994500 -0.242716 -4.980390 86.716600 12.504100 -75.159500 -5.348130 -0.000001 -0.000004 -62.760900 20.329200 -0.967532 -24.328900 0.000322 -0.000009 0.569311 2.919420 -11.073900 -22.291500 -0.000108 -0.000004 11.927900 5.307340 -0.131924 -2.192480 -6.469440 -0.000000 -174.475000 -4.310750 -0.066503 39.081100 -0.000007 -0.000012 -0.022613 0.016189 54.408200 40.985400 -0.000006 -0.000013 -10.518500 23.120100 -41.387300 11.754300 -0.000000 0.000003 -0.050549 -0.299724 -28.923800 -2.192510 6.469440 -0.000001 -170.475000 14.029200 157.092000 -39.081100 -0.002282 -0.040193 -0.055504 0.056712 46.018600 -40.985400 0.000008 0.000006 10.008800 -6.611960 -73.403000 -11.754300 -0.000006 -0.000006 -0.001184 -0.017981 -17.304300
